<svg width="32" height="32" viewBox="0 0 32 32" fill="none" xmlns="http://www.w3.org/2000/svg">
<g clip-path="url(#clip0_510_2348)">
<mask id="mask0_510_2348" style="mask-type:luminance" maskUnits="userSpaceOnUse" x="-7" y="-7" width="46" height="46">
<path d="M-6.40002 -6.39957H38.4V38.4004H-6.40002V-6.39957Z" fill="white"/>
</mask>
<g mask="url(#mask0_510_2348)">
<path d="M32 16C32 7.16347 24.8365 2.09808e-05 16 2.09808e-05C7.16346 2.09808e-05 0 7.16347 0 16C0 23.5037 5.16576 29.7998 12.1348 31.5288V20.8893H8.83545V16H12.1348V13.8932C12.1348 8.44731 14.5993 5.92315 19.9459 5.92315C20.9595 5.92315 22.7085 6.12187 23.4241 6.32066V10.7529C23.0464 10.7132 22.3905 10.6933 21.5756 10.6933C18.9521 10.6933 17.9384 11.6871 17.9384 14.2709V16H23.1645L22.2668 20.8893H17.9384V31.8828C25.8607 30.9259 32 24.1804 32 16Z" fill="#0866FF"/>
<path d="M22.2667 20.8894L23.1646 16H17.9384V14.2708C17.9384 11.687 18.9521 10.6933 21.5756 10.6933C22.3905 10.6933 23.0464 10.7131 23.4241 10.7529V6.32066C22.7085 6.12188 20.9595 5.92309 19.9458 5.92309C14.5994 5.92309 12.1348 8.44732 12.1348 13.8932V16H8.83545V20.8894H12.1348V31.5288C13.3727 31.8359 14.6671 32 16 32C16.6562 32 17.3029 31.9596 17.9384 31.8828V20.8894H22.2667Z" fill="white"/>
</g>
</g>
<defs>
<clipPath id="clip0_510_2348">
<rect width="32" height="32" fill="white"/>
</clipPath>
</defs>
</svg>
