<svg width="32" height="33" viewBox="0 0 32 33" fill="none" xmlns="http://www.w3.org/2000/svg">
<g clip-path="url(#clip0_821_149)">
<path d="M27.0053 27.4572H12.0053L5.06909 20.521" stroke="#38E54D" stroke-width="2" stroke-linecap="round" stroke-linejoin="round"/>
<path d="M20.5054 11.957L8.50537 23.957" stroke="#38E54D" stroke-width="2" stroke-linecap="round" stroke-linejoin="round"/>
<path d="M12.0054 27.4572H6.00537C5.74015 27.4572 5.4858 27.3518 5.29826 27.1643C5.11073 26.9768 5.00537 26.7224 5.00537 26.4572V20.8709C5.00549 20.6061 5.11069 20.3521 5.29787 20.1647L20.7129 4.74969C20.9004 4.5623 21.1546 4.45703 21.4197 4.45703C21.6848 4.45703 21.9391 4.5623 22.1266 4.74969L27.7129 10.3322C27.9003 10.5197 28.0055 10.774 28.0055 11.0391C28.0055 11.3042 27.9003 11.5584 27.7129 11.7459L12.0054 27.4572Z" stroke="#38E54D" stroke-width="2" stroke-linecap="round" stroke-linejoin="round"/>
<path d="M17.0054 8.45703L24.0054 15.457" stroke="#38E54D" stroke-width="2" stroke-linecap="round" stroke-linejoin="round"/>
</g>
<defs>
<clipPath id="clip0_821_149">
<rect width="32" height="32" fill="white" transform="translate(0.00537109 0.457031)"/>
</clipPath>
</defs>
</svg>
