<svg width="27" height="44" viewBox="0 0 27 44" fill="none" xmlns="http://www.w3.org/2000/svg">
<g id="Group">
<path id="Vector" d="M23.77 31.0483C23.7116 31.0483 23.3573 31.0938 23.324 31.1062C23.3657 31.466 23.3657 32.2851 23.3657 32.3057C23.3657 33.3564 22.8072 33.9562 22.4279 33.7245C22.4279 33.6956 22.4362 33.3647 22.4362 33.2282C22.4195 29.7412 20.6857 27.491 17.6347 26.5065C15.6383 27.3007 14.142 28.7815 13.1583 30.8084C12.9875 31.16 12.4956 31.0317 12.2331 30.4154C11.7246 29.4227 11.612 27.6978 12.3498 25.9771C7.58996 26.3038 4.60571 28.6823 4.58487 33.2364C4.58487 33.3729 4.5932 33.6377 4.5932 33.6377C4.5932 33.6707 4.5932 33.6997 4.5932 33.7287C4.21391 33.9603 3.65541 33.3605 3.65541 32.3099C3.65541 32.2892 3.67209 31.4247 3.69292 31.0896C3.65958 31.0814 3.30947 31.0524 3.25112 31.0524C2.03407 31.0524 1.33386 32.1031 1.33386 33.2902C1.33386 35.0978 2.7468 36.1112 4.86412 36.4339C6.07282 39.3707 9.13627 41.7864 13.5376 41.7864C17.939 41.7864 20.9858 39.4245 22.1861 36.4297C24.2951 36.1071 25.6997 35.0895 25.6997 33.2902C25.6997 32.1031 24.9995 31.0524 23.7825 31.0524L23.77 31.0483Z" fill="#F2CFBC"/>
<path id="Vector_2" d="M25.7038 30.411C25.7038 30.411 22.0985 23.3047 13.4917 23.3047C4.88484 23.3047 1.27956 30.411 1.27956 30.411C1.10034 30.5558 0.933617 30.7212 0.783571 30.9074C0.279249 31.5444 0 32.3882 0 33.2817C0 34.535 0.495985 35.6146 1.43794 36.4047C2.08398 36.9465 2.92173 37.3395 3.93038 37.5752C4.68061 39.0644 5.81846 40.3384 7.2564 41.2897C9.03195 42.4645 11.1993 43.0849 13.5208 43.0849C15.8424 43.0849 17.9972 42.4727 19.7603 41.3104C21.2065 40.359 22.3486 39.0726 23.0946 37.5711C24.0991 37.3312 24.9285 36.9382 25.5704 36.4005C26.5082 35.6105 27 34.5309 27 33.2817C27 32.0325 26.4998 31.0397 25.7038 30.4069V30.411ZM22.1693 36.4253C20.969 39.4201 17.8847 41.782 13.5208 41.782C9.15699 41.782 6.05603 39.3663 4.84733 36.4295C2.73001 36.1068 1.31707 35.0934 1.31707 33.2858C1.31707 32.0987 2.01729 31.048 3.23433 31.048C3.29268 31.048 3.64279 31.0728 3.67613 31.0852C3.65946 31.4203 3.63862 32.2848 3.63862 32.3055C3.63862 33.3561 4.19713 33.9559 4.57641 33.7243C4.57641 33.6953 4.57641 33.6622 4.57641 33.6333C4.57641 33.6333 4.57224 33.3685 4.56807 33.232C4.58891 28.682 7.57317 26.3036 12.333 25.9727C11.5994 27.6934 11.7078 29.4224 12.2163 30.411C12.4789 31.0232 12.9707 31.1556 13.1416 30.804C14.1252 28.7813 15.6215 27.2963 17.6179 26.5021C20.6689 27.4866 22.4027 29.7368 22.4194 33.2238C22.4194 33.3603 22.4111 33.6912 22.4111 33.7201C22.7904 33.9518 23.3489 33.352 23.3489 32.3013C23.3489 32.2807 23.3489 31.4617 23.3072 31.1018C23.3405 31.0935 23.6948 31.0439 23.7532 31.0439C24.9702 31.0439 25.6704 32.0945 25.6704 33.2817C25.6704 35.0851 24.2617 36.0986 22.1568 36.4212L22.1693 36.4253ZM10.4991 38.1419C10.4991 37.7118 10.8533 37.3602 11.2868 37.3602C11.2868 37.3602 12.2996 38.2908 13.5792 38.2908C14.8587 38.2908 15.8716 37.3602 15.8716 37.3602C16.305 37.3602 16.6593 37.7118 16.6593 38.1419C16.6593 38.8906 15.3881 39.9744 13.6042 39.9744C11.8203 39.9744 10.4991 38.8906 10.4991 38.1419ZM14.7546 36.1771C14.7546 36.3509 14.6087 36.4956 14.4336 36.4956H12.5664C12.3872 36.4956 12.2454 36.3509 12.2454 36.1771C12.2454 35.5195 12.7623 35.0231 13.4875 35.0231C14.2127 35.0231 14.7546 35.5153 14.7546 36.1771ZM16.5259 33.6912C16.5259 32.9259 17.1511 32.3055 17.9222 32.3055C18.6933 32.3055 19.3185 32.9259 19.3185 33.6912C19.3185 34.4564 18.6933 35.0769 17.9222 35.0769C17.1511 35.0769 16.5259 34.4564 16.5259 33.6912ZM7.6732 33.6912C7.6732 32.9259 8.29839 32.3055 9.06946 32.3055C9.84054 32.3055 10.4657 32.9259 10.4657 33.6912C10.4657 34.4564 9.84054 35.0769 9.06946 35.0769C8.29839 35.0769 7.6732 34.4564 7.6732 33.6912Z" fill="#12383B"/>
<path id="Vector_3" d="M14.8379 1.60947C14.542 1.18755 14.0501 0.914551 13.4916 0.914551C12.9331 0.914551 12.4413 1.19169 12.1454 1.60947C8.74016 6.54832 1.97141 18.2709 1.27953 30.4112C1.27953 30.4112 4.88481 23.3049 13.4916 23.3049C22.0984 23.3049 25.7037 30.4112 25.7037 30.4112C25.0119 18.2667 18.2431 6.54832 14.8379 1.60947Z" fill="#38E54D"/>
</g>
</svg>
