<svg width="1789" height="771" viewBox="0 0 1789 771" fill="none" xmlns="http://www.w3.org/2000/svg">
<path d="M1787.62 769.606C1776.3 753.375 1739.68 745.964 1714.09 739.901C1639.78 722.291 1563.68 710.611 1493.13 687.5C1449.41 673.176 1408.29 656.281 1368.18 638.77C1322.71 618.92 1277.3 598.589 1234.65 576.689C1153.62 535.081 1083.36 485.046 1033.12 429.164C991.473 382.843 961.615 331.917 963.21 279.08C964.125 248.794 983.802 208.406 1043.59 202.424C1102.82 196.499 1149.65 219.831 1178.08 247.594C1227.36 295.735 1255.95 352.021 1271.32 407.079C1286.22 460.485 1297.66 516.91 1280.84 570.625C1266.66 615.9 1234.92 665.54 1171.22 695.009C1100.4 727.772 1001.22 730.778 917.114 717.539C796.876 698.612 690.833 652.462 603.864 601.666C507.879 545.604 432.026 478.135 355.093 413.198C276.597 346.942 195.818 280.373 130.99 209.1C86.6371 160.337 55.5851 107.825 35.9391 53.8423C28.9492 34.6355 24.782 15.3947 1.27118 0.606367" stroke="#DDDDDD" stroke-linecap="round"/>
</svg>
