<?xml version="1.0" standalone="no"?>
<!DOCTYPE svg PUBLIC "-//W3C//DTD SVG 20010904//EN"
 "http://www.w3.org/TR/2001/REC-SVG-20010904/DTD/svg10.dtd">
<svg version="1.0" xmlns="http://www.w3.org/2000/svg"
 width="260.000000pt" height="260.000000pt" viewBox="0 0 260.000000 260.000000"
 preserveAspectRatio="xMidYMid meet">
<metadata>
Created by potrace 1.14, written by Peter Selinger 2001-2017
</metadata>
<g transform="translate(0.000000,260.000000) scale(0.100000,-0.100000)"
fill="#000000" stroke="none">
<path d="M1241 2579 c-61 -57 -254 -398 -371 -654 -128 -281 -249 -665 -276
-875 -2 -19 -6 -46 -9 -60 -4 -24 -16 -141 -19 -186 -1 -12 -10 -29 -20 -39
-49 -50 -70 -162 -44 -246 22 -74 110 -151 198 -172 16 -4 33 -22 48 -49 56
-107 196 -217 334 -263 106 -35 252 -43 366 -19 172 36 318 135 399 272 20 34
38 49 87 71 81 37 129 80 155 141 39 90 23 204 -36 266 -15 15 -22 40 -27 105
-7 88 -12 131 -21 177 -3 15 -8 43 -11 62 -58 357 -274 899 -512 1286 -118
193 -117 193 -182 201 -26 3 -41 -1 -59 -18z"/>
</g>
</svg>
